<svg width="512" height="512" viewBox="0 0 512 512" xmlns="http://www.w3.org/2000/svg">
  <defs>
    <linearGradient id="brand-gradient" x1="0%" y1="0%" x2="100%" y2="100%">
      <stop offset="0%" style="stop-color:#FF9A3E;stop-opacity:1" />
      <stop offset="100%" style="stop-color:#3E9AFF;stop-opacity:1" />
    </linearGradient>
  </defs>
  
  <!-- Letter P from DynaPuff Bold, properly centered -->
  <g transform="translate(256, 256)">
    <g transform="translate(-140, -200) scale(5.5)">
      <path d="M 12.9 41.001 L 13.4 39.701 Q 14.2 42.201 14.75 45.851 Q 15.3 49.501 15.65 53.351 Q 16 57.201 16 60.401 Q 16 66.301 14.05 69.451 Q 12.1 72.601 8.3 72.601 Q 5.1 72.601 3.25 70.601 Q 1.4 68.601 0.7 64.001 Q 0 59.401 0 51.701 Q 0 36.901 1.35 26.451 Q 2.7 16.001 6 10.001 Q 8.6 5.401 14.05 2.701 Q 19.5 0.001 27.7 0.001 Q 39.6 0.001 45.25 6.101 Q 50.9 12.201 50.9 22.101 Q 50.9 28.901 47.75 33.901 Q 44.6 38.901 39.2 41.651 Q 33.8 44.401 27 44.401 Q 23.8 44.401 20.25 43.701 Q 16.7 43.001 12.9 41.001 Z M 25.8 32.601 Q 31.8 32.601 35.55 29.401 Q 39.3 26.201 39.3 20.101 Q 39.3 16.101 36.65 13.451 Q 34 10.801 28.4 10.801 Q 24.3 10.801 21.3 12.651 Q 18.3 14.501 16.75 17.751 Q 15.2 21.001 15.2 25.201 Q 15.2 29.101 17.75 30.851 Q 20.3 32.601 25.8 32.601 Z" 
            fill="url(#brand-gradient)" />
    </g>
  </g>
</svg>
